<svg xmlns="http://www.w3.org/2000/svg" width="1200" height="675" viewBox="0 0 1200 675" role="img" aria-labelledby="title desc">
  <title id="title">Vegas Golden Knights moneyline Game 5 betting dashboard</title>
  <desc id="desc">Original BetLegend graphic for Anaheim Ducks at Vegas Golden Knights Game 5, showing series tied 2-2, pick Vegas moneyline -150, and verified matchup notes.</desc>
  <defs>
    <linearGradient id="bg" x1="0" y1="0" x2="1" y2="1">
      <stop offset="0" stop-color="#080908"/>
      <stop offset="0.55" stop-color="#17120b"/>
      <stop offset="1" stop-color="#101314"/>
    </linearGradient>
    <linearGradient id="gold" x1="0" y1="0" x2="1" y2="0">
      <stop offset="0" stop-color="#a77b2c"/>
      <stop offset="0.5" stop-color="#f2d075"/>
      <stop offset="1" stop-color="#8d6723"/>
    </linearGradient>
    <linearGradient id="ice" x1="0" y1="0" x2="1" y2="0">
      <stop offset="0" stop-color="#00fff2" stop-opacity=".16"/>
      <stop offset="1" stop-color="#f2d075" stop-opacity=".08"/>
    </linearGradient>
    <filter id="shadow" x="-20%" y="-20%" width="140%" height="140%">
      <feDropShadow dx="0" dy="18" stdDeviation="18" flood-color="#000" flood-opacity=".55"/>
    </filter>
  </defs>
  <rect width="1200" height="675" fill="url(#bg)"/>
  <g opacity=".12">
    <path d="M0 88H1200M0 176H1200M0 264H1200M0 352H1200M0 440H1200M0 528H1200M0 616H1200" stroke="#f2d075"/>
    <path d="M120 0V675M240 0V675M360 0V675M480 0V675M600 0V675M720 0V675M840 0V675M960 0V675M1080 0V675" stroke="#00fff2"/>
  </g>
  <g transform="translate(64 54)">
    <text x="0" y="0" fill="#f7ead0" font-family="Arial, sans-serif" font-size="26" font-weight="700" letter-spacing="4">BETLEGEND NHL FREE PICK</text>
    <text x="0" y="66" fill="#ffffff" font-family="Arial Black, Arial, sans-serif" font-size="58" font-weight="900">VEGAS GOLDEN KNIGHTS</text>
    <text x="0" y="120" fill="#f2d075" font-family="Arial Black, Arial, sans-serif" font-size="46" font-weight="900">MONEYLINE -150</text>
    <text x="0" y="158" fill="#cbbf9d" font-family="Arial, sans-serif" font-size="23">Game 5 vs Anaheim Ducks | May 12, 2026 | T-Mobile Arena</text>
  </g>
  <g transform="translate(64 260)" filter="url(#shadow)">
    <rect width="330" height="250" rx="14" fill="rgba(0,0,0,.58)" stroke="#f2d075" stroke-width="3"/>
    <text x="26" y="48" fill="#f2d075" font-family="Arial Black, Arial, sans-serif" font-size="24">SERIES STATE</text>
    <text x="26" y="98" fill="#fff" font-family="Arial Black, Arial, sans-serif" font-size="62">2 - 2</text>
    <text x="26" y="138" fill="#d9d0bc" font-family="Arial, sans-serif" font-size="20">Best-of-three reset</text>
    <text x="26" y="178" fill="#d9d0bc" font-family="Arial, sans-serif" font-size="20">Vegas returns home</text>
    <text x="26" y="218" fill="#d9d0bc" font-family="Arial, sans-serif" font-size="20">TNT/ESPN window: 9:30 ET</text>
  </g>
  <g transform="translate(434 260)" filter="url(#shadow)">
    <rect width="330" height="250" rx="14" fill="rgba(0,0,0,.58)" stroke="#00fff2" stroke-width="3"/>
    <text x="26" y="48" fill="#00fff2" font-family="Arial Black, Arial, sans-serif" font-size="24">VEGAS EDGE</text>
    <text x="26" y="91" fill="#fff" font-family="Arial, sans-serif" font-size="22">Marner: playoff points leader</text>
    <rect x="26" y="116" width="250" height="16" rx="8" fill="url(#ice)"/>
    <rect x="26" y="116" width="220" height="16" rx="8" fill="#f2d075"/>
    <text x="26" y="164" fill="#fff" font-family="Arial, sans-serif" font-size="22">Eichel: primary table-setter</text>
    <rect x="26" y="188" width="250" height="16" rx="8" fill="url(#ice)"/>
    <rect x="26" y="188" width="196" height="16" rx="8" fill="#00fff2"/>
    <text x="26" y="228" fill="#d9d0bc" font-family="Arial, sans-serif" font-size="18">Top-end skill still driving offense</text>
  </g>
  <g transform="translate(804 260)" filter="url(#shadow)">
    <rect width="330" height="250" rx="14" fill="rgba(0,0,0,.58)" stroke="#f2d075" stroke-width="3"/>
    <text x="26" y="48" fill="#f2d075" font-family="Arial Black, Arial, sans-serif" font-size="24">MARKET MATH</text>
    <text x="26" y="92" fill="#fff" font-family="Arial Black, Arial, sans-serif" font-size="43">-150</text>
    <text x="150" y="92" fill="#d9d0bc" font-family="Arial, sans-serif" font-size="21">implies 60.0%</text>
    <text x="26" y="140" fill="#d9d0bc" font-family="Arial, sans-serif" font-size="20">Home ice plus series pressure</text>
    <text x="26" y="180" fill="#d9d0bc" font-family="Arial, sans-serif" font-size="20">Anaheim road defense tested</text>
    <text x="26" y="220" fill="#d9d0bc" font-family="Arial, sans-serif" font-size="20">BetLegend: Vegas ML</text>
  </g>
  <g transform="translate(64 566)">
    <rect width="1070" height="58" rx="12" fill="url(#gold)" opacity=".95"/>
    <text x="535" y="38" text-anchor="middle" fill="#120f09" font-family="Arial Black, Arial, sans-serif" font-size="25">OFFICIAL PICK: VEGAS GOLDEN KNIGHTS MONEYLINE -150</text>
  </g>
</svg>
